# xmcd CD database file
#
# Track frame offsets:
#	150
#	17466
#	38468
#	56339
#	73044
#	96254
#
# Disc length: 1457 seconds
#
# Revision: 2
# Processed by: cddbd v1.5.1PL2 Copyright (c) Steve Scherf et al.
# Submitted via: jetAudio 5
#
DISCID=3f05af06
DTITLE=TRIBLUES - Demo CD
DYEAR=1900
DGENRE=
TTITLE0=I'm Good
TTITLE1=Hoochie Coochie Man
TTITLE2=Hey Joe
TTITLE3=Rock Me Baby
TTITLE4=Mustang Sally
TTITLE5=Little Wing
EXTD=
EXTT0=
EXTT1=
EXTT2=
EXTT3=
EXTT4=
EXTT5=
PLAYORDER=
